<svg xmlns="http://www.w3.org/2000/svg" width="23" height="105" viewBox="0 0 23 105"><defs><clipPath id="6udya"><path d="M4 88.65h13.008v15.919H4z"/></clipPath></defs><g><g><g><path fill="none" stroke="#1d1d1b" stroke-miterlimit="50" stroke-width="2" d="M11.13 21.22v0c5.522 0 10 4.404 10 9.838v12.324c0 5.433-4.478 9.838-10 9.838-5.523 0-10-4.405-10-9.838V31.058c0-5.434 4.477-9.838 10-9.838z"/></g><g><path fill="none" stroke="#1d1d1b" stroke-miterlimit="50" stroke-width="2" d="M21.13 37.47h-20"/></g><g><path fill="none" stroke="#1d1d1b" stroke-linecap="round" stroke-linejoin="round" stroke-miterlimit="50" stroke-width="2" d="M11.38 26.22v6"/></g><g><path fill="none" stroke="#1d1d1b" stroke-linecap="round" stroke-linejoin="round" stroke-miterlimit="50" stroke-width="2" d="M11.903 1.22c-5.1 3.169-9.69 12.987-.51 8.503s8.778 7.147.017 11.497"/></g></g><g><path fill="none" stroke="#1d1d1b" stroke-linecap="round" stroke-linejoin="round" stroke-miterlimit="50" stroke-width="2" d="M10.5 66.16v27.117"/></g><g><g/><g clip-path="url(#6udya)"><path fill="#1d1d1b" d="M10.505 104.569L4 88.65l6.505 3.777 6.503-3.777z"/></g></g></g></svg>